<mxfile host="app.diagrams.net" agent="Mozilla/5.0 (Windows NT 10.0; Win64; x64) AppleWebKit/537.36 (KHTML, like Gecko) Chrome/134.0.0.0 Safari/537.36 Edg/134.0.0.0" version="26.1.3">
  <diagram id="3q07VNqblSTx5j6VLEmy" name="Page-1">
    <mxGraphModel dx="1578" dy="771" grid="1" gridSize="10" guides="1" tooltips="1" connect="1" arrows="1" fold="1" page="1" pageScale="1" pageWidth="1169" pageHeight="827" math="0" shadow="0">
      <root>
        <mxCell id="0" />
        <mxCell id="1" parent="0" />
        <mxCell id="o8uJQQQXsENE6JPKMJCL-27" value="" style="whiteSpace=wrap;html=1;fillColor=none;strokeColor=#ae4132;" vertex="1" parent="1">
          <mxGeometry x="930" y="120" width="140" height="500" as="geometry" />
        </mxCell>
        <mxCell id="o8uJQQQXsENE6JPKMJCL-24" value="" style="whiteSpace=wrap;html=1;fillColor=none;strokeColor=#10739e;" vertex="1" parent="1">
          <mxGeometry x="210" y="120" width="710" height="500" as="geometry" />
        </mxCell>
        <mxCell id="o8uJQQQXsENE6JPKMJCL-21" value="parseCommand(&quot;delete /index 1&quot;)" style="text;html=1;align=center;verticalAlign=middle;resizable=0;points=[];autosize=1;strokeColor=none;fillColor=none;" vertex="1" parent="1">
          <mxGeometry x="80" y="225" width="200" height="30" as="geometry" />
        </mxCell>
        <mxCell id="o8uJQQQXsENE6JPKMJCL-9" value="deleteInternship(&quot;software&quot;, 1)" style="text;html=1;align=center;verticalAlign=middle;resizable=0;points=[];autosize=1;strokeColor=none;fillColor=none;" vertex="1" parent="1">
          <mxGeometry x="736" y="426" width="180" height="30" as="geometry" />
        </mxCell>
        <mxCell id="o8uJQQQXsENE6JPKMJCL-5" value="" style="whiteSpace=wrap;html=1;" vertex="1" parent="1">
          <mxGeometry x="287" y="250" width="20" height="360" as="geometry" />
        </mxCell>
        <mxCell id="_zjArbaSMD3B-iguk2qb-1" value="User" style="shape=umlActor;verticalLabelPosition=bottom;verticalAlign=top;html=1;" parent="1" vertex="1">
          <mxGeometry x="55" y="130" width="30" height="60" as="geometry" />
        </mxCell>
        <mxCell id="_zjArbaSMD3B-iguk2qb-8" value="" style="endArrow=none;startArrow=none;endFill=0;startFill=0;endSize=8;html=1;verticalAlign=bottom;labelBackgroundColor=none;strokeWidth=1;rounded=0;dashed=1;entryX=0.5;entryY=0;entryDx=0;entryDy=0;" parent="1" edge="1" target="o8uJQQQXsENE6JPKMJCL-5">
          <mxGeometry width="160" relative="1" as="geometry">
            <mxPoint x="296.74" y="190" as="sourcePoint" />
            <mxPoint x="296.74" y="230" as="targetPoint" />
          </mxGeometry>
        </mxCell>
        <mxCell id="_zjArbaSMD3B-iguk2qb-9" value="" style="endArrow=open;startArrow=none;endFill=0;startFill=0;endSize=8;html=1;verticalAlign=bottom;labelBackgroundColor=none;strokeWidth=1;rounded=0;entryX=0;entryY=0.5;entryDx=0;entryDy=0;" parent="1" target="_zjArbaSMD3B-iguk2qb-11" edge="1">
          <mxGeometry width="160" relative="1" as="geometry">
            <mxPoint x="307" y="250" as="sourcePoint" />
            <mxPoint x="487" y="250" as="targetPoint" />
          </mxGeometry>
        </mxCell>
        <mxCell id="_zjArbaSMD3B-iguk2qb-10" value="new DeleteCommand()" style="text;html=1;align=center;verticalAlign=middle;resizable=0;points=[];autosize=1;strokeColor=none;fillColor=none;" parent="1" vertex="1">
          <mxGeometry x="403" y="225" width="150" height="30" as="geometry" />
        </mxCell>
        <mxCell id="_zjArbaSMD3B-iguk2qb-11" value=":DeleteCommand" style="fontStyle=0;html=1;whiteSpace=wrap;fillColor=#b1ddf0;strokeColor=#10739e;" parent="1" vertex="1">
          <mxGeometry x="670" y="230" width="120" height="40" as="geometry" />
        </mxCell>
        <mxCell id="_zjArbaSMD3B-iguk2qb-12" value="" style="whiteSpace=wrap;html=1;" parent="1" vertex="1">
          <mxGeometry x="720" y="270" width="20" height="20" as="geometry" />
        </mxCell>
        <mxCell id="_zjArbaSMD3B-iguk2qb-13" value="" style="html=1;verticalAlign=bottom;labelBackgroundColor=none;endArrow=open;endFill=0;dashed=1;rounded=0;exitX=0;exitY=1;exitDx=0;exitDy=0;" parent="1" source="_zjArbaSMD3B-iguk2qb-12" edge="1">
          <mxGeometry width="160" relative="1" as="geometry">
            <mxPoint x="377" y="340" as="sourcePoint" />
            <mxPoint x="307" y="290" as="targetPoint" />
          </mxGeometry>
        </mxCell>
        <mxCell id="_zjArbaSMD3B-iguk2qb-14" value="command: DeleteCommand" style="text;html=1;align=center;verticalAlign=middle;resizable=0;points=[];autosize=1;strokeColor=none;fillColor=none;" parent="1" vertex="1">
          <mxGeometry x="411" y="266" width="170" height="30" as="geometry" />
        </mxCell>
        <mxCell id="_zjArbaSMD3B-iguk2qb-15" value="" style="endArrow=none;startArrow=none;endFill=0;startFill=0;endSize=8;html=1;verticalAlign=bottom;labelBackgroundColor=none;strokeWidth=1;rounded=0;dashed=1;entryX=0.5;entryY=0;entryDx=0;entryDy=0;" parent="1" edge="1" target="o8uJQQQXsENE6JPKMJCL-2">
          <mxGeometry width="160" relative="1" as="geometry">
            <mxPoint x="729.74" y="290" as="sourcePoint" />
            <mxPoint x="730" y="310" as="targetPoint" />
          </mxGeometry>
        </mxCell>
        <mxCell id="_zjArbaSMD3B-iguk2qb-19" value="execute(internships: InternshipList, user: UserProfile)" style="text;html=1;align=center;verticalAlign=middle;resizable=0;points=[];autosize=1;strokeColor=none;fillColor=none;" parent="1" vertex="1">
          <mxGeometry x="349" y="406" width="310" height="30" as="geometry" />
        </mxCell>
        <mxCell id="_zjArbaSMD3B-iguk2qb-20" value="" style="endArrow=open;startArrow=none;endFill=0;startFill=0;endSize=8;html=1;verticalAlign=bottom;labelBackgroundColor=none;strokeWidth=1;rounded=0;entryX=0;entryY=0;entryDx=0;entryDy=0;" parent="1" edge="1" target="o8uJQQQXsENE6JPKMJCL-4">
          <mxGeometry width="160" relative="1" as="geometry">
            <mxPoint x="307" y="430" as="sourcePoint" />
            <mxPoint x="720" y="430" as="targetPoint" />
          </mxGeometry>
        </mxCell>
        <mxCell id="_zjArbaSMD3B-iguk2qb-21" value="" style="endArrow=none;startArrow=none;endFill=0;startFill=0;endSize=8;html=1;verticalAlign=bottom;labelBackgroundColor=none;strokeWidth=1;rounded=0;dashed=1;exitX=0.5;exitY=1;exitDx=0;exitDy=0;" parent="1" edge="1" source="o8uJQQQXsENE6JPKMJCL-7">
          <mxGeometry width="160" relative="1" as="geometry">
            <mxPoint x="999.41" y="490" as="sourcePoint" />
            <mxPoint x="1000" y="640" as="targetPoint" />
          </mxGeometry>
        </mxCell>
        <mxCell id="_zjArbaSMD3B-iguk2qb-22" value="" style="endArrow=none;startArrow=none;endFill=0;startFill=0;endSize=8;html=1;verticalAlign=bottom;labelBackgroundColor=none;strokeWidth=1;rounded=0;dashed=1;exitX=0.5;exitY=1;exitDx=0;exitDy=0;entryX=0.5;entryY=0;entryDx=0;entryDy=0;" parent="1" edge="1" target="o8uJQQQXsENE6JPKMJCL-7" source="o8uJQQQXsENE6JPKMJCL-6">
          <mxGeometry width="160" relative="1" as="geometry">
            <mxPoint x="959.6" y="276" as="sourcePoint" />
            <mxPoint x="959.6" y="296" as="targetPoint" />
          </mxGeometry>
        </mxCell>
        <mxCell id="_zjArbaSMD3B-iguk2qb-23" value="" style="html=1;verticalAlign=bottom;labelBackgroundColor=none;endArrow=open;endFill=0;dashed=1;rounded=0;exitX=0;exitY=1;exitDx=0;exitDy=0;" parent="1" edge="1" source="o8uJQQQXsENE6JPKMJCL-4">
          <mxGeometry width="160" relative="1" as="geometry">
            <mxPoint x="720" y="470" as="sourcePoint" />
            <mxPoint x="309" y="580" as="targetPoint" />
          </mxGeometry>
        </mxCell>
        <mxCell id="_zjArbaSMD3B-iguk2qb-24" value="" style="shape=umlDestroy;whiteSpace=wrap;html=1;strokeWidth=3;targetShapes=umlLifeline;fillColor=#e51400;fontColor=#ffffff;strokeColor=#B20000;" parent="1" vertex="1">
          <mxGeometry x="717.5" y="590" width="25" height="20" as="geometry" />
        </mxCell>
        <mxCell id="_zjArbaSMD3B-iguk2qb-25" value="" style="endArrow=none;startArrow=none;endFill=0;startFill=0;endSize=8;html=1;verticalAlign=bottom;labelBackgroundColor=none;strokeWidth=1;rounded=0;dashed=1;exitX=0.5;exitY=1;exitDx=0;exitDy=0;" parent="1" edge="1" source="o8uJQQQXsENE6JPKMJCL-5">
          <mxGeometry width="160" relative="1" as="geometry">
            <mxPoint x="296.74" y="480" as="sourcePoint" />
            <mxPoint x="297" y="640" as="targetPoint" />
          </mxGeometry>
        </mxCell>
        <mxCell id="_zjArbaSMD3B-iguk2qb-33" value="" style="endArrow=open;startArrow=none;endFill=0;startFill=0;endSize=8;html=1;verticalAlign=bottom;labelBackgroundColor=none;strokeWidth=1;rounded=0;entryX=1;entryY=0;entryDx=0;entryDy=0;" parent="1" target="_zjArbaSMD3B-iguk2qb-34" edge="1">
          <mxGeometry width="160" relative="1" as="geometry">
            <mxPoint x="307" y="310" as="sourcePoint" />
            <mxPoint x="467" y="310" as="targetPoint" />
            <Array as="points">
              <mxPoint x="337" y="310" />
              <mxPoint x="337" y="320" />
            </Array>
          </mxGeometry>
        </mxCell>
        <mxCell id="_zjArbaSMD3B-iguk2qb-34" value="" style="whiteSpace=wrap;html=1;" parent="1" vertex="1">
          <mxGeometry x="297" y="330" width="20" height="60" as="geometry" />
        </mxCell>
        <mxCell id="_zjArbaSMD3B-iguk2qb-35" value="" style="endArrow=open;startArrow=none;endFill=0;startFill=0;endSize=8;html=1;verticalAlign=bottom;dashed=1;labelBackgroundColor=none;rounded=0;exitX=1;exitY=1;exitDx=0;exitDy=0;" parent="1" source="_zjArbaSMD3B-iguk2qb-34" edge="1">
          <mxGeometry width="160" relative="1" as="geometry">
            <mxPoint x="387" y="390" as="sourcePoint" />
            <mxPoint x="307" y="410" as="targetPoint" />
            <Array as="points">
              <mxPoint x="337" y="400" />
              <mxPoint x="337" y="410" />
            </Array>
          </mxGeometry>
        </mxCell>
        <mxCell id="_zjArbaSMD3B-iguk2qb-36" value="parseKeyValuePairs(&quot;/index 1&quot;, command)" style="text;html=1;align=center;verticalAlign=middle;resizable=0;points=[];autosize=1;strokeColor=none;fillColor=none;" parent="1" vertex="1">
          <mxGeometry x="329" y="300" width="250" height="30" as="geometry" />
        </mxCell>
        <mxCell id="_zjArbaSMD3B-iguk2qb-37" value="" style="endArrow=open;startArrow=none;endFill=0;startFill=0;endSize=8;html=1;verticalAlign=bottom;labelBackgroundColor=none;strokeWidth=1;rounded=0;entryX=0;entryY=0;entryDx=0;entryDy=0;" parent="1" edge="1" target="o8uJQQQXsENE6JPKMJCL-2">
          <mxGeometry width="160" relative="1" as="geometry">
            <mxPoint x="317" y="350" as="sourcePoint" />
            <mxPoint x="720" y="350" as="targetPoint" />
          </mxGeometry>
        </mxCell>
        <mxCell id="_zjArbaSMD3B-iguk2qb-38" value="setParameters(keyValueMap)" style="text;html=1;align=center;verticalAlign=middle;resizable=0;points=[];autosize=1;strokeColor=none;fillColor=none;" parent="1" vertex="1">
          <mxGeometry x="413" y="325" width="180" height="30" as="geometry" />
        </mxCell>
        <mxCell id="_zjArbaSMD3B-iguk2qb-39" value="" style="html=1;verticalAlign=bottom;labelBackgroundColor=none;endArrow=open;endFill=0;dashed=1;rounded=0;exitX=0;exitY=1;exitDx=0;exitDy=0;" parent="1" edge="1" source="o8uJQQQXsENE6JPKMJCL-2">
          <mxGeometry width="160" relative="1" as="geometry">
            <mxPoint x="720" y="370" as="sourcePoint" />
            <mxPoint x="317" y="370" as="targetPoint" />
          </mxGeometry>
        </mxCell>
        <mxCell id="o8uJQQQXsENE6JPKMJCL-1" value=":CommandParser" style="fontStyle=0;html=1;whiteSpace=wrap;fillColor=#b1ddf0;strokeColor=#10739e;" vertex="1" parent="1">
          <mxGeometry x="237" y="150" width="120" height="40" as="geometry" />
        </mxCell>
        <mxCell id="o8uJQQQXsENE6JPKMJCL-2" value="" style="whiteSpace=wrap;html=1;" vertex="1" parent="1">
          <mxGeometry x="720" y="350" width="20" height="20" as="geometry" />
        </mxCell>
        <mxCell id="o8uJQQQXsENE6JPKMJCL-3" value="" style="endArrow=none;startArrow=none;endFill=0;startFill=0;endSize=8;html=1;verticalAlign=bottom;labelBackgroundColor=none;strokeWidth=1;rounded=0;dashed=1;exitX=0.5;exitY=1;exitDx=0;exitDy=0;entryX=0.5;entryY=0;entryDx=0;entryDy=0;" edge="1" parent="1" source="o8uJQQQXsENE6JPKMJCL-2" target="o8uJQQQXsENE6JPKMJCL-4">
          <mxGeometry width="160" relative="1" as="geometry">
            <mxPoint x="739.74" y="300" as="sourcePoint" />
            <mxPoint x="730" y="430" as="targetPoint" />
          </mxGeometry>
        </mxCell>
        <mxCell id="o8uJQQQXsENE6JPKMJCL-4" value="" style="whiteSpace=wrap;html=1;" vertex="1" parent="1">
          <mxGeometry x="720" y="430" width="20" height="150" as="geometry" />
        </mxCell>
        <mxCell id="o8uJQQQXsENE6JPKMJCL-6" value=":Model" style="fontStyle=0;html=1;whiteSpace=wrap;fillColor=#fad9d5;strokeColor=#ae4132;" vertex="1" parent="1">
          <mxGeometry x="940" y="150" width="120" height="40" as="geometry" />
        </mxCell>
        <mxCell id="o8uJQQQXsENE6JPKMJCL-7" value="" style="whiteSpace=wrap;html=1;" vertex="1" parent="1">
          <mxGeometry x="990" y="450" width="20" height="20" as="geometry" />
        </mxCell>
        <mxCell id="o8uJQQQXsENE6JPKMJCL-8" value="" style="endArrow=open;startArrow=none;endFill=0;startFill=0;endSize=8;html=1;verticalAlign=bottom;labelBackgroundColor=none;strokeWidth=1;rounded=0;entryX=0;entryY=0;entryDx=0;entryDy=0;" edge="1" parent="1" target="o8uJQQQXsENE6JPKMJCL-7">
          <mxGeometry width="160" relative="1" as="geometry">
            <mxPoint x="740" y="450" as="sourcePoint" />
            <mxPoint x="990" y="460" as="targetPoint" />
          </mxGeometry>
        </mxCell>
        <mxCell id="o8uJQQQXsENE6JPKMJCL-11" value="" style="endArrow=open;startArrow=none;endFill=0;startFill=0;endSize=8;html=1;verticalAlign=bottom;labelBackgroundColor=none;strokeWidth=1;rounded=0;entryX=0;entryY=0;entryDx=0;entryDy=0;dashed=1;exitX=0;exitY=1;exitDx=0;exitDy=0;" edge="1" parent="1" source="o8uJQQQXsENE6JPKMJCL-7">
          <mxGeometry width="160" relative="1" as="geometry">
            <mxPoint x="920" y="470" as="sourcePoint" />
            <mxPoint x="740" y="470" as="targetPoint" />
          </mxGeometry>
        </mxCell>
        <mxCell id="o8uJQQQXsENE6JPKMJCL-13" value="result: CommandResult" style="fontStyle=0;html=1;whiteSpace=wrap;fillColor=#b1ddf0;strokeColor=#10739e;" vertex="1" parent="1">
          <mxGeometry x="780" y="490" width="130" height="40" as="geometry" />
        </mxCell>
        <mxCell id="o8uJQQQXsENE6JPKMJCL-14" value="" style="whiteSpace=wrap;html=1;" vertex="1" parent="1">
          <mxGeometry x="835" y="530" width="20" height="20" as="geometry" />
        </mxCell>
        <mxCell id="o8uJQQQXsENE6JPKMJCL-15" value="" style="endArrow=open;startArrow=none;endFill=0;startFill=0;endSize=8;html=1;verticalAlign=bottom;labelBackgroundColor=none;strokeWidth=1;rounded=0;entryX=0;entryY=0.5;entryDx=0;entryDy=0;" edge="1" parent="1" target="o8uJQQQXsENE6JPKMJCL-13">
          <mxGeometry width="160" relative="1" as="geometry">
            <mxPoint x="740" y="509.8" as="sourcePoint" />
            <mxPoint x="920" y="509.8" as="targetPoint" />
          </mxGeometry>
        </mxCell>
        <mxCell id="o8uJQQQXsENE6JPKMJCL-16" value="" style="endArrow=open;startArrow=none;endFill=0;startFill=0;endSize=8;html=1;verticalAlign=bottom;labelBackgroundColor=none;strokeWidth=1;rounded=0;entryX=0;entryY=0;entryDx=0;entryDy=0;dashed=1;exitX=0;exitY=1;exitDx=0;exitDy=0;" edge="1" parent="1" source="o8uJQQQXsENE6JPKMJCL-14">
          <mxGeometry width="160" relative="1" as="geometry">
            <mxPoint x="920" y="550" as="sourcePoint" />
            <mxPoint x="740" y="550" as="targetPoint" />
          </mxGeometry>
        </mxCell>
        <mxCell id="o8uJQQQXsENE6JPKMJCL-17" value="" style="endArrow=none;startArrow=none;endFill=0;startFill=0;endSize=8;html=1;verticalAlign=bottom;labelBackgroundColor=none;strokeWidth=1;rounded=0;dashed=1;exitX=0.5;exitY=1;exitDx=0;exitDy=0;" edge="1" parent="1" source="o8uJQQQXsENE6JPKMJCL-14">
          <mxGeometry width="160" relative="1" as="geometry">
            <mxPoint x="844.72" y="560" as="sourcePoint" />
            <mxPoint x="845" y="640" as="targetPoint" />
          </mxGeometry>
        </mxCell>
        <mxCell id="o8uJQQQXsENE6JPKMJCL-18" value="" style="endArrow=open;startArrow=none;endFill=0;startFill=0;endSize=8;html=1;verticalAlign=bottom;labelBackgroundColor=none;strokeWidth=1;rounded=0;dashed=1;exitX=0;exitY=1;exitDx=0;exitDy=0;" edge="1" parent="1">
          <mxGeometry width="160" relative="1" as="geometry">
            <mxPoint x="287" y="600" as="sourcePoint" />
            <mxPoint x="70" y="600" as="targetPoint" />
          </mxGeometry>
        </mxCell>
        <mxCell id="o8uJQQQXsENE6JPKMJCL-19" value="result: CommandResult" style="text;html=1;align=center;verticalAlign=middle;resizable=0;points=[];autosize=1;strokeColor=none;fillColor=none;" vertex="1" parent="1">
          <mxGeometry x="117" y="575" width="150" height="30" as="geometry" />
        </mxCell>
        <mxCell id="o8uJQQQXsENE6JPKMJCL-20" value="" style="endArrow=open;startArrow=none;endFill=0;startFill=0;endSize=8;html=1;verticalAlign=bottom;labelBackgroundColor=none;strokeWidth=1;rounded=0;entryX=0;entryY=0;entryDx=0;entryDy=0;" edge="1" parent="1">
          <mxGeometry width="160" relative="1" as="geometry">
            <mxPoint x="70" y="250" as="sourcePoint" />
            <mxPoint x="287" y="250" as="targetPoint" />
          </mxGeometry>
        </mxCell>
        <mxCell id="o8uJQQQXsENE6JPKMJCL-22" value="" style="endArrow=none;startArrow=none;endFill=0;startFill=0;endSize=8;html=1;verticalAlign=bottom;labelBackgroundColor=none;strokeWidth=1;rounded=0;dashed=1;exitX=0.5;exitY=1;exitDx=0;exitDy=0;entryX=0.494;entryY=0.498;entryDx=0;entryDy=0;entryPerimeter=0;" edge="1" parent="1" source="o8uJQQQXsENE6JPKMJCL-4" target="_zjArbaSMD3B-iguk2qb-24">
          <mxGeometry width="160" relative="1" as="geometry">
            <mxPoint x="855" y="560" as="sourcePoint" />
            <mxPoint x="854.72" y="610" as="targetPoint" />
          </mxGeometry>
        </mxCell>
        <mxCell id="o8uJQQQXsENE6JPKMJCL-23" value="" style="endArrow=none;startArrow=none;endFill=0;startFill=0;endSize=8;html=1;verticalAlign=bottom;labelBackgroundColor=none;strokeWidth=1;rounded=0;dashed=1;" edge="1" parent="1">
          <mxGeometry width="160" relative="1" as="geometry">
            <mxPoint x="70" y="220" as="sourcePoint" />
            <mxPoint x="70" y="650" as="targetPoint" />
          </mxGeometry>
        </mxCell>
        <mxCell id="o8uJQQQXsENE6JPKMJCL-25" value="&lt;b&gt;Logic&lt;/b&gt;" style="text;html=1;align=center;verticalAlign=middle;resizable=0;points=[];autosize=1;strokeColor=none;fillColor=none;" vertex="1" parent="1">
          <mxGeometry x="540" y="120" width="60" height="30" as="geometry" />
        </mxCell>
        <mxCell id="o8uJQQQXsENE6JPKMJCL-30" value="&lt;b&gt;Model&lt;/b&gt;" style="text;html=1;align=center;verticalAlign=middle;resizable=0;points=[];autosize=1;strokeColor=none;fillColor=none;" vertex="1" parent="1">
          <mxGeometry x="970" y="120" width="60" height="30" as="geometry" />
        </mxCell>
      </root>
    </mxGraphModel>
  </diagram>
</mxfile>
